<svg id="Layer_1" enable-background="new 0 0 256 256" height="512" viewBox="0 0 256 256" width="512" xmlns="http://www.w3.org/2000/svg"><g><path d="m128 192.042c-35.313 0-64.043-28.729-64.043-64.042s28.73-64.042 64.043-64.042 64.043 28.729 64.043 64.042-28.73 64.042-64.043 64.042zm0-123.084c-32.557 0-59.043 26.486-59.043 59.042s26.486 59.042 59.043 59.042 59.043-26.486 59.043-59.042-26.486-59.042-59.043-59.042z" fill="#ebe7f2"/><path d="m138.607 231.293h-21.216c-5.403 0-10.123-3.654-11.477-8.885l-6.547-25.286-22.507 13.252c-4.658 2.741-10.578 1.987-14.398-1.833l-15.002-15.002c-3.821-3.821-4.575-9.743-1.834-14.399l13.252-22.508-25.286-6.545c-5.232-1.355-8.886-6.076-8.886-11.479v-21.216c0-5.404 3.653-10.124 8.885-11.479l25.287-6.545-13.252-22.509c-2.741-4.656-1.987-10.577 1.834-14.398l15.002-15.002c3.819-3.821 9.741-4.575 14.397-1.834l22.509 13.252 6.547-25.286c1.354-5.231 6.073-8.884 11.477-8.884h21.216c5.403 0 10.124 3.653 11.479 8.884l6.546 25.287 7.274-4.283c1.189-.699 2.723-.304 3.423.886s.304 2.722-.886 3.423l-9.49 5.587c-.17.1-.334.207-.492.318-.701.494-1.605.594-2.398.265-.792-.329-1.36-1.041-1.505-1.886-.032-.186-.071-.374-.121-.561l-7.19-27.782c-.784-3.024-3.514-5.137-6.639-5.137h-21.216c-3.125 0-5.854 2.112-6.637 5.137l-7.19 27.775c-.051.197-.09.388-.123.577-.148.843-.717 1.552-1.508 1.879-.791.326-1.694.226-2.395-.267-.158-.111-.322-.218-.493-.319l-24.724-14.556c-2.694-1.585-6.117-1.148-8.326 1.06l-15.002 15.002c-2.209 2.21-2.646 5.634-1.061 8.327l14.556 24.723c.101.172.205.332.314.486.496.7.598 1.604.271 2.397s-1.036 1.363-1.881 1.51c-.192.034-.384.075-.577.125l-27.773 7.189c-3.025.783-5.139 3.513-5.139 6.638v21.216c0 3.125 2.113 5.854 5.139 6.638l27.773 7.188c.194.051.384.09.572.123.846.146 1.557.715 1.885 1.508.327.792.227 1.698-.269 2.398-.11.156-.215.317-.313.486l-14.559 24.727c-1.585 2.693-1.148 6.118 1.061 8.328l15.002 15.001c2.21 2.209 5.634 2.644 8.326 1.06l24.724-14.556c.17-.1.334-.207.492-.318.699-.493 1.604-.594 2.396-.266.791.327 1.359 1.037 1.507 1.88.033.189.072.379.122.568l7.191 27.782c.783 3.025 3.513 5.138 6.637 5.138h21.216c3.125 0 5.854-2.113 6.639-5.139l7.189-27.774c.051-.194.09-.382.122-.568.145-.845.713-1.557 1.505-1.886.793-.329 1.697-.229 2.398.265.158.111.322.218.493.319l24.723 14.555c2.69 1.584 6.117 1.15 8.327-1.061l15.001-15.001c2.21-2.21 2.646-5.635 1.061-8.328l-14.556-24.723c-.102-.173-.206-.334-.316-.49-.495-.7-.596-1.605-.269-2.398.328-.792 1.039-1.362 1.885-1.508.188-.033.375-.072.563-.121l27.784-7.191c3.024-.784 5.138-3.513 5.138-6.638v-21.216c0-3.125-2.113-5.854-5.139-6.638l-27.774-7.189c-.194-.051-.386-.091-.576-.125-.845-.147-1.555-.718-1.881-1.51s-.225-1.697.271-2.397c.109-.154.214-.314.312-.482l4.197-7.129c.701-1.19 2.235-1.585 3.423-.886 1.189.7 1.586 2.233.886 3.422l-2.891 4.911 25.286 6.545c5.232 1.355 8.886 6.075 8.886 11.479v21.216c0 5.403-3.653 10.123-8.885 11.478l-25.287 6.545 13.252 22.508c2.742 4.657 1.987 10.578-1.834 14.4l-15.001 15.001c-3.821 3.821-9.742 4.575-14.399 1.833l-22.508-13.251-6.546 25.286c-1.355 5.234-6.075 8.887-11.479 8.887z" fill="#f9b087"/><g fill="#846f75"><path d="m128 75.21c-29.108 0-52.79 23.682-52.79 52.79s23.682 52.79 52.79 52.79 52.79-23.682 52.79-52.79-23.682-52.79-52.79-52.79zm0 100.58c-26.352 0-47.79-21.438-47.79-47.79s21.438-47.79 47.79-47.79 47.79 21.438 47.79 47.79-21.438 47.79-47.79 47.79z"/><path d="m146.688 127.27-4.424 14.476-7.713-39.887c-.223-1.155-1.222-1.998-2.397-2.025-1.189-.019-2.212.77-2.487 1.915l-7.634 31.706-5.854-20.875c-.277-.991-1.134-1.709-2.157-1.813-1.03-.107-2.006.431-2.475 1.346l-7.49 14.604h-14.867c-1.381 0-2.5 1.119-2.5 2.5s1.119 2.5 2.5 2.5h16.394c.938 0 1.797-.525 2.225-1.359l5.277-10.29 6.724 23.977c.307 1.096 1.365 1.855 2.454 1.825 1.138-.021 2.117-.808 2.384-1.915l7.183-29.833 7.434 38.441c.218 1.127 1.176 1.961 2.322 2.022.045.002.089.003.133.003 1.094 0 2.067-.714 2.39-1.77l6.82-22.319h15.881c1.381 0 2.5-1.119 2.5-2.5s-1.119-2.5-2.5-2.5h-17.731c-1.101.001-2.071.719-2.392 1.771z"/><path d="m200.963 27.902c-16.725 0-30.331 13.606-30.331 30.331s13.606 30.331 30.331 30.331 30.331-13.606 30.331-30.331c0-16.724-13.606-30.331-30.331-30.331zm0 55.662c-13.968 0-25.331-11.363-25.331-25.331 0-13.967 11.363-25.331 25.331-25.331s25.331 11.363 25.331 25.331-11.363 25.331-25.331 25.331z"/></g><path d="m197.975 70.536c-.64 0-1.279-.244-1.768-.732l-10.969-10.968c-.977-.976-.977-2.559 0-3.535.977-.977 2.559-.977 3.535 0l9.201 9.2 15.177-15.176c.977-.977 2.559-.977 3.535 0 .977.976.977 2.559 0 3.535l-16.944 16.944c-.488.488-1.128.732-1.767.732z" fill="#f9b087"/></g></svg>