<svg id="Capa_1" enable-background="new 0 0 512 512" height="512" viewBox="0 0 512 512" width="512" xmlns="http://www.w3.org/2000/svg"><g><circle cx="255.721" cy="256" fill="#fcf2ff" r="198.194"/><path d="m181.354 44.754c-5.996 0-11.766-3.27-14.673-8.988l-.052-.097c-1.218-2.399-1.798-4.952-1.798-7.472-.004-6.02 3.294-11.823 9.024-14.742 8.125-4.149 18.077-.903 22.214 7.226 1.222 2.407 1.806 4.976 1.806 7.508 0 6.024-3.282 11.839-9.008 14.754-2.412 1.23-4.985 1.811-7.513 1.811z" fill="#ffdbde"/><path d="m90.564 99.097c-4.363 0-8.718-1.718-11.964-5.125-6.29-6.605-6.036-17.06.569-23.351 10.165-9.681 21.198-18.589 32.794-26.472 7.544-5.141 17.819-3.173 22.944 4.371 5.129 7.544 3.173 17.815-4.371 22.944-10.105 6.871-19.722 14.633-28.585 23.077-3.198 3.044-7.295 4.556-11.387 4.556z" fill="#ffcace"/><path d="m21.386 222.972c-1.125 0-2.27-.117-3.415-.359-8.927-1.875-14.641-10.633-12.762-19.56 5.444-25.891 14.863-50.694 27.996-73.714 4.524-7.927 14.609-10.677 22.528-6.165 7.923 4.52 10.685 14.605 6.165 22.528-11.431 20.04-19.629 41.621-24.367 64.149-1.637 7.782-8.5 13.121-16.145 13.121z" fill="#ffb9c0"/><path d="m55.971 404.645c-5.355 0-10.605-2.597-13.782-7.391-24.388-36.794-38.867-79.54-41.871-123.617-.617-9.097 6.258-16.98 15.359-17.601 9.121-.552 16.98 6.258 17.601 15.359 2.613 38.367 15.214 75.581 36.444 107.609 5.04 7.605 2.96 17.851-4.641 22.891-2.808 1.863-5.977 2.75-9.11 2.75z" fill="#ffc5e0"/><path d="m255.721 512c-58.339 0-113.286-19.117-158.907-55.278-7.149-5.665-8.351-16.056-2.685-23.202 5.673-7.149 16.06-8.351 23.202-2.685 39.726 31.488 87.581 48.133 138.391 48.133 9.121 0 16.516 7.395 16.516 16.516-.001 9.121-7.396 16.516-16.517 16.516z" fill="#f2d1ff"/><path d="m321.777 502.774c-7.185 0-13.794-4.722-15.871-11.972-2.508-8.77 2.565-17.915 11.331-20.427 73.298-20.988 131.871-79.56 152.859-152.859 2.516-8.766 11.657-13.835 20.427-11.331 8.766 2.512 13.839 11.657 11.331 20.427-24.101 84.161-91.359 151.419-175.52 175.52-1.52.437-3.053.642-4.557.642z" fill="#dfbdf0"/><path d="m363.076 231.226h-82.581v-82.581c0-4.561-3.697-8.258-8.258-8.258h-33.032c-4.561 0-8.258 3.697-8.258 8.258v82.581h-74.323c-4.561 0-8.258 3.697-8.258 8.258v24.363c0 4.56 3.697 8.258 8.258 8.258h81.099v82.992c0 4.56 3.697 8.258 8.258 8.258h26.255c4.561 0 8.258-3.698 8.258-8.258v-74.323h82.581c4.56 0 8.258-3.698 8.258-8.258v-33.032c.001-4.561-3.697-8.258-8.257-8.258z" fill="#f2d1ff"/><path d="m495.205 272.516c-9.121 0-16.516-7.395-16.516-16.516 0-122.944-100.024-222.968-222.968-222.968-9.121 0-16.516-7.395-16.516-16.516s7.395-16.516 16.516-16.516c141.161 0 256 114.843 256 256 0 9.121-7.395 16.516-16.516 16.516z" fill="#cbb0f2"/><path d="m247.463 338.581v-57.806c0-9.122-7.395-16.516-16.516-16.516h-57.807c-9.122 0-16.516-7.395-16.516-16.516v-16.516h-8.258c-4.561 0-8.258 3.697-8.258 8.258v33.032c0 4.561 3.697 8.258 8.258 8.258h82.581v82.581c0 4.561 3.697 8.258 8.258 8.258h33.032c4.561 0 8.258-3.697 8.258-8.258v-8.258h-16.516c-9.122-.001-16.516-7.396-16.516-16.517z" fill="#dfbdf0"/></g></svg>